<?xml version="1.0" encoding="UTF-8"?>
<svg version="1.1" xmlns="http://www.w3.org/2000/svg" width="273" height="273">
<path d="M0 0 C0.66547852 0.18191895 1.33095703 0.36383789 2.01660156 0.55126953 C36.68340056 10.21548181 65.96026914 34.93041252 83.75 65.8125 C100.31138447 95.6953157 105.77971877 133.7768623 96.59423828 166.92871094 C96.39813965 167.61223633 96.20204102 168.29576172 96 169 C95.81808105 169.66547852 95.63616211 170.33095703 95.44873047 171.01660156 C85.78451819 205.68340056 61.06958748 234.96026914 30.1875 252.75 C0.3046843 269.31138447 -37.7768623 274.77971877 -70.92871094 265.59423828 C-71.95399902 265.30009033 -71.95399902 265.30009033 -73 265 C-73.66547852 264.81808105 -74.33095703 264.63616211 -75.01660156 264.44873047 C-109.68340056 254.78451819 -138.96026914 230.06958748 -156.75 199.1875 C-173.31138447 169.3046843 -178.77971877 131.2231377 -169.59423828 98.07128906 C-169.39813965 97.38776367 -169.20204102 96.70423828 -169 96 C-168.72712158 95.00178223 -168.72712158 95.00178223 -168.44873047 93.98339844 C-158.78451819 59.31659944 -134.06958748 30.03973086 -103.1875 12.25 C-72.49514495 -4.76004007 -33.86848194 -9.71662954 0 0 Z " fill="#47595E" transform="translate(173,4)"/>
<path d="M0 0 C1.16097702 0.00007553 2.32195404 0.00015106 3.51811218 0.00022888 C4.77130753 0.00539017 6.02450287 0.01055145 7.31567383 0.01586914 C8.59879959 0.01728409 9.88192535 0.01869904 11.20393372 0.02015686 C14.61190749 0.02397134 18.01983851 0.03379248 21.42779541 0.04486084 C24.90669171 0.05509796 28.38559493 0.05965941 31.86450195 0.06469727 C38.68808897 0.07541572 45.51164057 0.09300387 52.33520508 0.11352539 C52.33520508 8.03352539 52.33520508 15.95352539 52.33520508 24.11352539 C47.2247168 24.15219727 47.2247168 24.15219727 42.01098633 24.19165039 C38.70792408 24.23007298 35.40501782 24.2752327 32.10205078 24.32104492 C29.80818134 24.34925421 27.5142147 24.37046892 25.22021484 24.38452148 C21.92079915 24.4059509 18.62255206 24.45260322 15.32348633 24.50415039 C13.78728386 24.50599335 13.78728386 24.50599335 12.220047 24.50787354 C7.75486055 24.59953048 5.0801041 24.65740061 1.2109375 27.02661133 C-1.66803771 30.2297195 -1.80137212 32.07469617 -1.87011719 36.29760742 C-1.89006241 37.37857697 -1.91000763 38.45954651 -1.93055725 39.57327271 C-1.95562599 41.32956497 -1.95562599 41.32956497 -1.98120117 43.12133789 C-2.00198227 44.31709442 -2.02276337 45.51285095 -2.04417419 46.74484253 C-2.10971781 50.57601003 -2.16857711 54.40724777 -2.22729492 58.23852539 C-2.27047556 60.83098066 -2.31408969 63.42342875 -2.3581543 66.01586914 C-2.46622225 72.38168353 -2.56526036 78.74754889 -2.66479492 85.11352539 C-11.24479492 85.11352539 -19.82479492 85.11352539 -28.66479492 85.11352539 C-28.74894799 77.46962215 -28.82905173 69.8274209 -28.87179565 62.18345642 C-28.89281738 58.62299544 -28.92085325 55.06292256 -28.96655273 51.50268555 C-29.01879213 47.40678396 -29.03782476 43.31128597 -29.05541992 39.21508789 C-29.07606506 37.95427399 -29.09671021 36.69346008 -29.11798096 35.3944397 C-29.12080652 24.16706701 -26.57917298 16.28303213 -18.82495117 8.09399414 C-13.12324608 2.86657193 -7.79858087 -0.01691666 0 0 Z " fill="#FAFBFB" transform="translate(140.664794921875,122.886474609375)"/>
<path d="M0 0 C1.5326971 0.00747581 3.06540387 0.01316239 4.59811401 0.01715088 C8.59972296 0.03230212 12.60073573 0.07149037 16.60211182 0.1159668 C20.69820088 0.15714889 24.79438784 0.17521047 28.890625 0.1953125 C36.90394768 0.23799743 44.91667436 0.3082583 52.9296875 0.390625 C52.9296875 8.640625 52.9296875 16.890625 52.9296875 25.390625 C51.11847412 25.3999707 49.30726074 25.40931641 47.44116211 25.41894531 C41.43793105 25.45455379 35.4350925 25.50840281 29.43213558 25.57452774 C25.79466459 25.613935 22.15743322 25.64615608 18.51977539 25.66162109 C15.00517598 25.67683292 11.49123562 25.71135654 7.97693062 25.75893402 C5.99244857 25.78085871 4.00778036 25.78309484 2.0231781 25.78497314 C-4.83501847 25.89575393 -9.57033267 26.11607497 -15.0703125 30.390625 C-18.62634152 35.48759993 -18.32759731 38.70618828 -19.0703125 45.390625 C-27.3203125 45.390625 -35.5703125 45.390625 -44.0703125 45.390625 C-44.4486913 31.51673559 -43.81756553 21.92078992 -34.0703125 11.390625 C-24.15226822 0.97873619 -13.83605341 -0.19997307 0 0 Z " fill="#FCFDFC" transform="translate(157.0703125,62.609375)"/>
<path d="M0 0 C8.25 0 16.5 0 25 0 C25 32.67 25 65.34 25 99 C16.75 99 8.5 99 0 99 C0 66.33 0 33.66 0 0 Z " fill="#FCFDFC" transform="translate(67,109)"/>
<path d="M0 0 C1.31923022 3.95769066 0.05097701 6.43701445 -1.3125 10.1875 C-12.79575759 42.41259607 -9.57493113 79.07094833 4.8125 109.9375 C20.46933162 141.96690411 47.95142023 167.36414872 81.6875 179.3125 C117.68570726 191.52890434 154.08039884 188.88409599 188.1875 172.25 C219.49677693 156.41360803 243.60868537 129.09673027 254.82421875 95.765625 C259.41009986 81.28791787 261.29817188 67.39984522 261.625 52.25 C261.66329461 50.76300086 261.70235242 49.27602117 261.7421875 47.7890625 C261.83689905 44.19288911 261.92136909 40.59656524 262 37 C262.33 37 262.66 37 263 37 C263.84524171 73.11132675 263.84524171 73.11132675 259 90 C258.81808105 90.66547852 258.63616211 91.33095703 258.44873047 92.01660156 C248.78451819 126.68340056 224.06958748 155.96026914 193.1875 173.75 C163.3046843 190.31138447 125.2231377 195.77971877 92.07128906 186.59423828 C91.04600098 186.30009033 91.04600098 186.30009033 90 186 C89.00178223 185.72712158 89.00178223 185.72712158 87.98339844 185.44873047 C53.31659944 175.78451819 24.03973086 151.06958748 6.25 120.1875 C-10.29539655 90.33353239 -15.78101398 52.26312626 -6.625 19.1328125 C-2.46017699 4.92035398 -2.46017699 4.92035398 0 0 Z " fill="#F4F6F7" transform="translate(10,83)"/>
<path d="M0 0 C3.46236126 2.39067801 5.74528805 5.0530761 7.625 8.8125 C8.14613171 14.04090334 8.26773534 18.45286754 6 23.25 C1.67065669 27.92113357 -1.45376026 30.05111982 -7.875 30.3125 C-12.77457754 30.12610303 -15.65041458 29.16462688 -19.375 25.8125 C-23.28952087 21.35804522 -23.78152669 17.14761158 -23.72265625 11.38671875 C-23.0231193 6.2070013 -19.96603987 3.22170674 -16.1875 -0.125 C-10.76505329 -2.17347987 -5.42453258 -1.90863183 0 0 Z " fill="#F9FBFA" transform="translate(87.375,63.1875)"/>
<path d="M0 0 C0.33 0 0.66 0 1 0 C1.84524171 36.11132675 1.84524171 36.11132675 -3 53 C-3.18191895 53.66547852 -3.36383789 54.33095703 -3.55126953 55.01660156 C-13.21749084 89.69060721 -37.93237088 118.94923284 -68.8125 136.75 C-81.14408148 143.62523728 -96.69946148 151.55366759 -111 149 C-111 148.67 -111 148.34 -111 148 C-109.52853516 147.67128906 -109.52853516 147.67128906 -108.02734375 147.3359375 C-81.50363715 141.20002938 -58.7965708 128.61572272 -39 110 C-38.11441406 109.21109375 -38.11441406 109.21109375 -37.2109375 108.40625 C-20.15958092 92.56707517 -10.15434001 69.9998409 -4 48 C-3.65066406 46.75992188 -3.30132812 45.51984375 -2.94140625 44.2421875 C0.34965568 29.91268341 -0.24110752 14.64228664 0 0 Z " fill="#EDF1F2" transform="translate(272,120)"/>
<path d="M0 0 C1.31923022 3.95769066 0.05097701 6.43701445 -1.3125 10.1875 C-12.79790054 42.41860979 -9.56850691 79.06396107 4.8125 109.9375 C10.12555078 120.86731431 16.52682246 131.22712808 25 140 C23.68 140.33 22.36 140.66 21 141 C-4.52738127 111.43831869 -12.08160386 75.17598844 -10 37 C-8.80516827 24.71425336 -5.54334037 11.08668075 0 0 Z " fill="#ECF1F2" transform="translate(10,83)"/>
<path d="M0 0 C0.33 0 0.66 0 1 0 C1.84524171 36.11132675 1.84524171 36.11132675 -3 53 C-3.18191895 53.66547852 -3.36383789 54.33095703 -3.55126953 55.01660156 C-9.24278911 75.43282999 -20.97181091 95.97181091 -36 111 C-36.99 110.67 -37.98 110.34 -39 110 C-37.6078125 108.7315625 -37.6078125 108.7315625 -36.1875 107.4375 C-19.97037101 91.05689188 -10.13939507 69.94641742 -4 48 C-3.65066406 46.75992188 -3.30132812 45.51984375 -2.94140625 44.2421875 C0.34965568 29.91268341 -0.24110752 14.64228664 0 0 Z " fill="#DBE2E2" transform="translate(272,120)"/>
<path d="M0 0 C1.32 0.66 2.64 1.32 4 2 C3.40832031 2.44730469 2.81664062 2.89460938 2.20703125 3.35546875 C-2.14882567 6.68809011 -6.24356546 10.00121485 -10 14 C-10.66 12.35 -11.32 10.7 -12 9 C-11.01 9.495 -11.01 9.495 -10 10 C-9.731875 9.071875 -9.46375 8.14375 -9.1875 7.1875 C-8.08851629 4.23759634 -7.37581439 2.94384814 -5 1 C-4.34 1.33 -3.68 1.66 -3 2 C-2.01 1.34 -1.02 0.68 0 0 Z " fill="#505E61" transform="translate(126,124)"/>
<path d="M0 0 C0.33 0 0.66 0 1 0 C1.19335938 1.24394531 1.38671875 2.48789063 1.5859375 3.76953125 C2.95479623 12.53286802 4.33566962 21.28674096 6 30 C5.01 29.67 4.02 29.34 3 29 C2.28935663 25.85894725 1.61090582 22.71172787 0.9375 19.5625 C0.73833984 18.68400391 0.53917969 17.80550781 0.33398438 16.90039062 C-0.92758241 10.9024152 -0.97952957 6.05583377 0 0 Z " fill="#E3E9EA" transform="translate(1,144)"/>
<path d="M0 0 C0.66 0.33 1.32 0.66 2 1 C-0.25 3.5 -0.25 3.5 -3 6 C-4.32 6 -5.64 6 -7 6 C-7.3403125 6.8971875 -7.3403125 6.8971875 -7.6875 7.8125 C-9.33811133 10.56351888 -11.1972081 11.52484637 -14 13 C-14.33 12.34 -14.66 11.68 -15 11 C-15.66 10.67 -16.32 10.34 -17 10 C-14.91794343 8.70623653 -12.83442696 7.41493446 -10.75 6.125 C-10.16347656 5.76019531 -9.57695313 5.39539063 -8.97265625 5.01953125 C-2.40009492 0.95783605 -2.40009492 0.95783605 0 0 Z " fill="#5C696C" transform="translate(78,12)"/>
<path d="M0 0 C0 0.99 0 1.98 0 3 C-2.0978523 4.20005531 -4.2020249 5.38502983 -6.3125 6.5625 C-6.90740234 6.90474609 -7.50230469 7.24699219 -8.11523438 7.59960938 C-9.70282559 8.47766262 -11.34993931 9.24586268 -13 10 C-13.99 9.67 -14.98 9.34 -16 9 C-16 8.34 -16 7.68 -16 7 C-13.71070947 5.82845707 -11.41881638 4.66261926 -9.125 3.5 C-8.47402344 3.16613281 -7.82304687 2.83226562 -7.15234375 2.48828125 C-2.2265625 0 -2.2265625 0 0 0 Z " fill="#E7EBEC" transform="translate(206,252)"/>
<path d="M0 0 C-1.875 4.75 -1.875 4.75 -3 7 C-4.32 7 -5.64 7 -7 7 C-8.80317221 10.96697886 -9.49202991 14.6822542 -10 19 C-10.33 19 -10.66 19 -11 19 C-11.65055683 12.75465439 -10.90383622 8.85705384 -7.38671875 3.62890625 C-5.07607017 0.91470777 -3.5736836 0 0 0 Z " fill="#5D696C" transform="translate(149,89)"/>
<path d="M0 0 C1.52846661 3.05693322 1.23242445 5.62984547 1 9 C-0.5 11.4375 -0.5 11.4375 -2 13 C-2.99 12.67 -3.98 12.34 -5 12 C-5.33 12.66 -5.66 13.32 -6 14 C-5.41892368 10.2397015 -4.34800504 7.46964968 -2.4375 4.1875 C-1.98246094 3.39730469 -1.52742187 2.60710937 -1.05859375 1.79296875 C-0.53458984 0.90544922 -0.53458984 0.90544922 0 0 Z " fill="#9BA5A7" transform="translate(17,69)"/>
<path d="M0 0 C0.66 0.33 1.32 0.66 2 1 C0.35821735 5.77609498 -2.26546702 9.79382904 -5 14 C-5.66 13.67 -6.32 13.34 -7 13 C-5.55049545 9.2089881 -3.84827434 5.6125362 -2 2 C-1.34 2 -0.68 2 0 2 C0 1.34 0 0.68 0 0 Z " fill="#576567" transform="translate(254,198)"/>
<path d="M0 0 C1.64826111 2.96687001 2.44271087 5.65626525 3 9 C2.67 8.34 2.34 7.68 2 7 C0.35 7.33 -1.3 7.66 -3 8 C-3.33 8.99 -3.66 9.98 -4 11 C-4.66 11 -5.32 11 -6 11 C-4.54955729 6.89041233 -2.48889248 3.56741255 0 0 Z " fill="#8A9698" transform="translate(24,58)"/>
<path d="M0 0 C1.12894876 0.93274109 2.25300876 1.87140122 3.375 2.8125 C4.00148437 3.33457031 4.62796875 3.85664062 5.2734375 4.39453125 C7 6 7 6 9 9 C7.68 9 6.36 9 5 9 C5 8.34 5 7.68 5 7 C3.02 7 1.04 7 -1 7 C-0.67 4.69 -0.34 2.38 0 0 Z " fill="#586668" transform="translate(232,39)"/>
<path d="M0 0 C1.72357119 2.58535679 2.44735018 4.03811614 3.1875 6.9375 C3.36667969 7.60652344 3.54585938 8.27554688 3.73046875 8.96484375 C4.03268678 11.24680888 3.68756692 12.82026659 3 15 C3 14.34 3 13.68 3 13 C1.68 13 0.36 13 -1 13 C-0.67 8.71 -0.34 4.42 0 0 Z " fill="#7D898A" transform="translate(266,93)"/>
<path d="M0 0 C0.66 0.33 1.32 0.66 2 1 C1.67 3.31 1.34 5.62 1 8 C-1.31 7.67 -3.62 7.34 -6 7 C-4.02 4.69 -2.04 2.38 0 0 Z " fill="#737F82" transform="translate(47,32)"/>
<path d="M0 0 C2 1 2 1 2 1 Z M-2 1 C-1.34 1 -0.68 1 0 1 C0.268125 1.598125 0.53625 2.19625 0.8125 2.8125 C1.98493467 4.97224808 3.19369282 6.35790256 5 8 C4.67 8.99 4.34 9.98 4 11 C1.69 8.69 -0.62 6.38 -3 4 C-2.67 3.01 -2.34 2.02 -2 1 Z " fill="#596667" transform="translate(41,224)"/>
<path d="M0 0 C0.99 0.33 1.98 0.66 3 1 C0.03 3.97 -2.94 6.94 -6 10 C-6.66 9.67 -7.32 9.34 -8 9 C-5.36 6.03 -2.72 3.06 0 0 Z " fill="#F4F6F6" transform="translate(232,231)"/>
<path d="M0 0 C2.6855594 2.6855594 3.06049974 5.37621328 4 9 C1.03 8.505 1.03 8.505 -2 8 C-1.34 5.36 -0.68 2.72 0 0 Z " fill="#697778" transform="translate(260,78)"/>
<path d="M0 0 C0.66 0.33 1.32 0.66 2 1 C-2.18461538 5.92307692 -2.18461538 5.92307692 -6.3125 6.3125 C-7.199375 6.209375 -8.08625 6.10625 -9 6 C-6.45368965 3.02930459 -3.57769851 1.5224249 0 0 Z " fill="#758082" transform="translate(78,12)"/>
<path d="M0 0 C2 1 2 1 2 1 Z M0 2 C-4.29290618 6.75286041 -4.29290618 6.75286041 -8 7 C-8.66 6.34 -9.32 5.68 -10 5 C-8.68 4.67 -7.36 4.34 -6 4 C-6 3.34 -6 2.68 -6 2 C-2.25 0.875 -2.25 0.875 0 2 Z " fill="#526164" transform="translate(194,254)"/>
<path d="M0 0 C0.99 0.33 1.98 0.66 3 1 C2.8125 2.875 2.8125 2.875 2 5 C-0.5625 6.25 -0.5625 6.25 -3 7 C-3 3 -3 3 -1.5 1.25 C-1.005 0.8375 -0.51 0.425 0 0 Z " fill="#566465" transform="translate(143,148)"/>
<path d="M0 0 C-2.24497221 2.24497221 -2.96027349 2.37003419 -6 2.75 C-7.051875 2.89695312 -7.051875 2.89695312 -8.125 3.046875 C-10 3 -10 3 -12 1 C-3.96428571 -1.27678571 -3.96428571 -1.27678571 0 0 Z " fill="#566265" transform="translate(112,3)"/>
<path d="M0 0 C-1.17255709 3.33727786 -2.18868404 5.77437487 -5 8 C-5.66 8 -6.32 8 -7 8 C-6.690625 7.401875 -6.38125 6.80375 -6.0625 6.1875 C-4.89790296 3.91043228 -4.89790296 3.91043228 -4 1 C-2 0 -2 0 0 0 Z " fill="#E5EBEC" transform="translate(94,83)"/>
<path d="M0 0 C2.15377564 2.62198774 3.40072174 4.64404172 4 8 C3.01 8.33 2.02 8.66 1 9 C-1.125 3.375 -1.125 3.375 0 0 Z " fill="#728081" transform="translate(256,70)"/>
<path d="M0 0 C0.33 0 0.66 0 1 0 C1.66 3.63 2.32 7.26 3 11 C2.01 10.67 1.02 10.34 0 10 C-0.95024979 6.30458414 -0.95024979 3.69541586 0 0 Z " fill="#D9DEDF" transform="translate(4,163)"/>
<path d="M0 0 C0.66 0.33 1.32 0.66 2 1 C-1.32307692 5.8 -1.32307692 5.8 -4.75 6.8125 C-5.4925 6.874375 -6.235 6.93625 -7 7 C-4.66666667 4.66666667 -2.33333333 2.33333333 0 0 Z " fill="#778285" transform="translate(56,25)"/>
<path d="M0 0 C2.875 -0.125 2.875 -0.125 6 0 C6.66 0.66 7.32 1.32 8 2 C5.03 2.66 2.06 3.32 -1 4 C-0.67 2.68 -0.34 1.36 0 0 Z " fill="#445156" transform="translate(99,5)"/>
<path d="M0 0 C1.9375 0.8125 1.9375 0.8125 4 2 C4.33 2.99 4.66 3.98 5 5 C4.01 5.495 4.01 5.495 3 6 C1.02 4.68 -0.96 3.36 -3 2 C-2.01 1.34 -1.02 0.68 0 0 Z " fill="#556263" transform="translate(56,240)"/>
<path d="M0 0 C0.99 0 1.98 0 3 0 C3 3.3 3 6.6 3 10 C0.70366176 6.55549263 0.45983515 4.06187717 0 0 Z " fill="#ECEFF0" transform="translate(1,158)"/>
<path d="M0 0 C0.99 0 1.98 0 3 0 C3 1.32 3 2.64 3 4 C3.66 4.33 4.32 4.66 5 5 C3.35 5 1.7 5 0 5 C-0.33 4.01 -0.66 3.02 -1 2 C-0.67 1.34 -0.34 0.68 0 0 Z " fill="#59676A" transform="translate(80,11)"/>
<path d="M0 0 C0.66 1.32 1.32 2.64 2 4 C1.34 4 0.68 4 0 4 C-0.33 4.99 -0.66 5.98 -1 7 C-1.99 5.68 -2.98 4.36 -4 3 C-3.01 2.67 -2.02 2.34 -1 2 C-0.67 1.34 -0.34 0.68 0 0 Z " fill="#536265" transform="translate(24,201)"/>
<path d="M0 0 C2.0625 2.3125 2.0625 2.3125 4 5 C3.67 5.99 3.34 6.98 3 8 C2.01 7.34 1.02 6.68 0 6 C-0.1875 2.875 -0.1875 2.875 0 0 Z " fill="#606E70" transform="translate(251,62)"/>
<path d="M0 0 C2.91517292 1.07401108 4.77810176 1.77810176 7 4 C1.25 4.125 1.25 4.125 -1 3 C-0.67 2.01 -0.34 1.02 0 0 Z " fill="#546365" transform="translate(201,16)"/>
<path d="M0 0 C-2.31 1.32 -4.62 2.64 -7 4 C-6.625 2.0625 -6.625 2.0625 -6 0 C-3.50907189 -1.24546405 -2.58919267 -0.7767578 0 0 Z " fill="#536164" transform="translate(212,248)"/>
<path d="M0 0 C0.66 0 1.32 0 2 0 C2.75 1.75 2.75 1.75 3 4 C1.0625 6.25 1.0625 6.25 -1 8 C-0.67 5.36 -0.34 2.72 0 0 Z " fill="#657173" transform="translate(5,101)"/>
<path d="M0 0 C2.31 0.66 4.62 1.32 7 2 C5.68 2.99 4.36 3.98 3 5 C1.5 3.625 1.5 3.625 0 2 C0 1.34 0 0.68 0 0 Z " fill="#536061" transform="translate(186,9)"/>
</svg>
